HIERARCHY
ROOT Hips
{
	OFFSET 0.000000 0.000000 0.000000 
	CHANNELS 6 Xposition Yposition Zposition Zrotation Yrotation Xrotation
	JOINT LeftUpLeg
	{
		OFFSET 1.363060 -1.794630 0.839290 
		CHANNELS 3 Zrotation Yrotation Xrotation
		JOINT LeftLeg
		{
			OFFSET 2.448110 -6.726130 0.000000 
			CHANNELS 3 Zrotation Yrotation Xrotation
			JOINT LeftFoot
			{
				OFFSET 2.562200 -7.039590 0.000000 
				CHANNELS 3 Zrotation Yrotation Xrotation
				JOINT LeftToeBase
				{
					OFFSET 0.157640 -0.433110 2.322550 
					CHANNELS 3 Zrotation Yrotation Xrotation
					End Site
					{
						OFFSET 0.000000 0.000000 0.000000 
					}
				}
			}
		}
	}
	JOINT RightUpLeg
	{
		OFFSET -1.305520 -1.794630 0.839290 
		CHANNELS 3 Zrotation Yrotation Xrotation
		JOINT RightLeg
		{
			OFFSET -2.542530 -6.985550 0.000000 
			CHANNELS 3 Zrotation Yrotation Xrotation
			JOINT RightFoot
			{
				OFFSET -2.568260 -7.056230 0.000000 
				CHANNELS 3 Zrotation Yrotation Xrotation
				JOINT RightToeBase
				{
					OFFSET -0.164730 -0.452590 2.363150 
					CHANNELS 3 Zrotation Yrotation Xrotation
					End Site
					{
						OFFSET 0.000000 0.000000 0.000000 
					}
				}
			}
		}
	}
	JOINT Spine
	{
		OFFSET 0.028270 2.035590 -0.193380 
		CHANNELS 3 Zrotation Yrotation Xrotation
		JOINT Spine1
		{
			OFFSET 0.056720 2.048850 -0.042750 
			CHANNELS 3 Zrotation Yrotation Xrotation
			JOINT Neck1
			{
				OFFSET -0.054170 1.746240 0.172020 
				CHANNELS 3 Zrotation Yrotation Xrotation
				JOINT Head
				{
					OFFSET 0.104070 1.761360 -0.123970 
					CHANNELS 3 Zrotation Yrotation Xrotation
					End Site
					{
						OFFSET 0.000000 0.000000 0.000000 
					}
				}
			}
			JOINT LeftArm
			{
				OFFSET 3.362410 1.200890 -0.311210 
				CHANNELS 3 Zrotation Yrotation Xrotation
				JOINT LeftForeArm
				{
					OFFSET 4.983000 -0.000000 -0.000000 
					CHANNELS 3 Zrotation Yrotation Xrotation
					JOINT LeftHand
					{
						OFFSET 3.483560 -0.000000 -0.000000 
						CHANNELS 3 Zrotation Yrotation Xrotation
						JOINT LeftHandIndex1
						{
							OFFSET 0.715260 -0.000000 -0.000000 
							CHANNELS 3 Zrotation Yrotation Xrotation
							End Site
							{
								OFFSET 0.000000 0.000000 0.000000 
							}
						}
					}
				}
			}
			JOINT RightArm
			{
				OFFSET -3.136600 1.374050 -0.404650 
				CHANNELS 3 Zrotation Yrotation Xrotation
				JOINT RightForeArm
				{
					OFFSET -5.241900 -0.000000 -0.000000 
					CHANNELS 3 Zrotation Yrotation Xrotation
					JOINT RightHand
					{
						OFFSET -3.444170 -0.000000 -0.000000 
						CHANNELS 3 Zrotation Yrotation Xrotation
						JOINT RightHandIndex1
						{
							OFFSET -0.622530 -0.000000 -0.000000 
							CHANNELS 3 Zrotation Yrotation Xrotation
							End Site
							{
								OFFSET 0.000000 0.000000 0.000000 
							}
						}
					}
				}
			}
		}
	}
}
MOTION
Frames: 13
Frame Time: 0.041667
2.260763 17.535244 4.533654 98.306964 -80.121349 -93.467101 4.665155 -9.520543 -17.047447 2.244458 10.356861 27.955786 -3.265046 18.013022 27.163583 1.018500 -6.420400 -18.009300 0.901662 8.055125 -33.406090 -7.503460 -16.133828 50.593595 1.815522 -7.914876 1.342520 -0.559400 4.790600 -13.312300 2.342023 -1.044186 7.928745 3.382764 -1.180312 -9.687485 -3.866574 2.048252 13.092001 -2.653000 0.238800 7.315400 -85.920077 13.682659 20.818523 29.175614 -38.502019 -12.185260 -0.226596 -2.778684 -7.722829 -7.125000 0.000000 0.000000 56.642554 21.499730 4.204540 -76.283791 57.970603 -50.254586 -0.530815 1.295474 21.278387 7.125000 0.000000 0.000000 
2.293831 17.505804 4.711331 102.280053 -80.214802 -97.768697 4.995558 -9.595015 -16.319589 2.159743 10.202540 27.418079 -3.182415 18.194788 27.834407 1.459500 -7.635700 -21.612800 0.265756 9.090806 -33.043048 -7.547353 -16.169394 50.691214 1.762656 -7.786392 1.441246 -0.497400 4.521500 -12.548800 2.351691 -0.614324 8.017046 3.280915 -0.995947 -9.754099 -3.916042 1.937785 12.950751 -2.698900 0.197100 7.230300 -85.938185 13.348800 21.720100 29.208242 -38.511668 -12.208355 -0.287614 -2.784223 -8.371836 -7.125000 0.000000 0.000000 57.757894 21.913753 6.151361 -72.143344 57.364647 -46.396283 -0.554905 1.272927 23.065468 7.125000 0.000000 0.000000 
2.344314 17.468175 4.909532 104.211732 -80.045968 -99.836448 5.137961 -9.657792 -15.884944 2.007982 9.997014 26.798297 -3.042392 18.095417 28.327948 1.365800 -7.396800 -20.896300 -0.582618 9.405233 -33.104090 -7.596428 -16.238974 50.754982 1.659631 -7.561351 1.764546 -0.540200 4.709100 -13.080800 2.326262 -0.287441 8.035584 3.157500 -0.842957 -9.831508 -4.145708 1.810579 13.064168 -2.878300 0.141600 7.296400 -86.005316 13.015170 22.293631 29.131581 -38.422241 -12.144015 -0.294327 -2.752267 -6.980212 -7.125000 0.000000 0.000000 57.943930 22.215890 7.507859 -67.181793 56.474964 -41.865694 -0.578438 1.233505 24.145575 7.125000 0.000000 0.000000 
2.405890 17.433655 5.134582 103.366150 -80.465311 -98.686373 5.773470 -10.334627 -15.951843 1.878668 9.797545 26.087141 -2.872158 18.008969 28.959051 1.364300 -7.392800 -20.884500 -0.981355 9.013873 -33.754589 -7.576423 -16.270153 50.682334 1.315892 -6.764623 2.371832 -0.417000 4.144900 -11.484800 2.508489 -0.586452 7.968557 3.362888 -0.984756 -9.835250 -4.256017 2.251208 13.244485 -2.798100 0.284400 7.471500 -86.977590 12.770768 21.062405 28.929960 -38.187187 -11.957440 -0.162732 -2.666536 -2.747109 -7.125000 0.000000 0.000000 58.331901 23.464469 9.517390 -61.547834 55.194926 -36.819890 -0.592053 1.180548 26.112268 7.125000 0.000000 0.000000 
2.458965 17.401520 5.280849 107.732095 -81.132940 -103.099290 6.701066 -10.483116 -15.556199 1.756788 9.606163 25.498306 -2.482996 17.339918 29.548000 1.531600 -7.813400 -22.148700 -0.852118 9.846955 -33.684456 -7.511753 -16.231029 50.591861 1.046898 -6.096217 2.562675 -0.199900 2.878800 -7.941400 2.717462 0.388168 7.949989 3.253654 -0.560616 -10.117065 -4.105500 1.633437 13.101954 -2.835000 0.037800 7.347000 -86.468873 12.628267 23.738198 29.330550 -38.532992 -12.265595 -0.293562 -2.694947 -4.590637 -7.125000 0.000000 0.000000 59.653847 23.895131 9.557613 -55.907080 53.608106 -31.912823 -0.589140 1.118842 29.269401 7.125000 0.000000 0.000000 
2.501881 17.376019 5.485582 109.492547 -81.645021 -104.799484 7.287873 -11.107079 -15.327894 1.612428 9.438323 25.099604 -2.061275 16.401235 29.922436 1.447200 -7.604700 -21.519700 -1.084226 10.005271 -33.767791 -7.420639 -16.183044 50.297310 0.902212 -5.762787 3.080274 -0.168400 2.643400 -7.287400 2.848039 0.673258 7.999649 3.058617 -0.446877 -10.020605 -4.032864 1.530924 13.143488 -2.761700 -0.026700 7.378300 -86.462046 12.323582 25.093663 29.500354 -38.660445 -12.391679 -0.343360 -2.707862 -5.270570 -7.125000 0.000000 0.000000 59.935682 25.037936 9.933609 -49.984954 51.474739 -26.920690 -0.581936 1.039989 32.052447 7.125000 0.000000 0.000000 
2.543345 17.351762 5.713223 110.213800 -81.711818 -105.590873 7.367557 -11.650644 -15.018062 1.368312 9.210220 24.686225 -1.377176 14.912404 30.688860 1.483100 -7.694200 -21.789100 -1.766632 9.806786 -33.726364 -7.316312 -16.136183 49.854932 0.860733 -5.715455 3.744182 -0.243700 3.176500 -8.770600 2.876157 0.573226 8.126527 3.008993 -0.501301 -9.797515 -4.116203 1.769632 13.147708 -2.721700 0.047900 7.440600 -87.044974 11.751317 24.978316 29.427446 -38.557646 -12.325604 -0.330706 -2.687972 -4.947901 -7.125000 0.000000 0.000000 59.615582 26.684754 10.618993 -44.472035 48.972058 -22.439182 -0.569898 0.955520 34.068924 7.125000 0.000000 0.000000 
2.608238 17.321078 5.934231 109.266808 -81.851905 -104.476717 7.519014 -11.954476 -15.134809 1.088532 8.942739 24.176824 -0.465779 13.035261 31.917702 1.748900 -8.322300 -23.697400 -2.377964 9.568094 -33.928733 -7.220622 -16.085367 49.389131 1.007031 -6.130548 4.236729 -0.360300 3.856100 -10.672100 2.912286 0.547786 8.122185 2.946353 -0.504121 -9.733884 -4.038841 1.729592 13.042973 -2.646700 0.014300 7.423800 -87.516499 11.335036 25.155739 29.457342 -38.544399 -12.335413 -0.284023 -2.646040 -4.279071 -7.125000 0.000000 0.000000 59.500511 28.004007 10.847065 -39.861332 46.415894 -18.831839 -0.559662 0.871001 35.423812 7.125000 0.000000 0.000000 
2.637989 17.304907 6.162183 112.258888 -81.691157 -107.796976 7.254644 -12.237770 -14.524756 0.869077 8.720889 23.766765 -0.016518 12.111525 32.625337 2.089000 -9.049000 -25.948600 -3.291432 9.918032 -33.448695 -7.084391 -16.010240 48.826598 0.969456 -6.104803 4.810152 -0.426300 4.190400 -11.612900 2.874615 0.991618 8.250291 2.690683 -0.305729 -9.644774 -3.930305 1.355524 13.054342 -2.605800 -0.165700 7.441300 -87.453013 10.921468 26.346647 29.528871 -38.580470 -12.403324 0.088402 -2.563244 -3.961315 -7.125000 0.000000 0.000000 59.423643 29.043932 10.266212 -35.788016 43.743134 -15.762006 -0.554797 0.783577 35.716407 7.125000 0.000000 0.000000 
2.674996 17.285937 6.342348 120.749249 -81.541118 -116.867665 7.165744 -11.467810 -13.787012 0.662745 8.511305 23.521853 0.710542 10.472895 33.431241 2.451800 -9.749700 -28.169900 -3.720537 11.204580 -32.639663 -6.916566 -15.899906 48.283348 0.936634 -6.048715 5.262173 -0.398500 4.052900 -11.225400 3.219396 2.012197 8.503192 3.191300 0.095047 -9.706708 -4.028756 1.153496 12.888709 -2.657100 -0.271100 7.359600 -87.889113 10.307651 26.914888 29.422586 -38.458074 -12.325933 0.159472 -2.554364 -3.510783 -7.125000 0.000000 0.000000 59.152218 30.281420 9.248268 -32.170466 40.991062 -13.162123 -0.544957 0.702203 35.119846 7.125000 0.000000 0.000000 
2.719778 17.266759 6.579422 114.732838 -81.272853 -110.654295 6.612734 -12.475233 -13.907218 0.409330 8.307973 23.194413 1.040150 9.433821 33.550974 2.865700 -10.474400 -30.527000 -5.117881 10.428549 -32.715794 -6.761032 -15.800481 47.493473 0.871130 -6.040272 6.128811 -0.429400 4.205400 -11.655200 3.247965 1.845184 8.419031 3.456611 0.057409 -9.747048 -4.337201 1.061319 12.823443 -2.809300 -0.341100 7.345000 -88.316491 9.893513 27.416467 29.409184 -38.418011 -12.306298 0.106758 -2.581300 -3.262522 -7.125000 0.000000 0.000000 59.099345 31.450212 7.900620 -29.110950 38.341432 -11.069929 -0.535854 0.631086 34.427682 7.125000 0.000000 0.000000 
2.761761 17.248515 6.847803 114.757108 -81.669199 -110.587148 6.547185 -12.959113 -13.921021 0.324765 8.257629 23.285446 1.128987 8.539493 32.412461 3.832300 -11.933800 -35.498200 -5.617833 10.205840 -32.540316 -6.531844 -15.614708 46.573819 0.956810 -6.369638 6.960107 -0.517300 4.609900 -12.799100 3.235446 1.924733 8.334768 2.952487 0.109743 -9.768614 -4.461087 0.954962 12.862422 -2.861500 -0.404900 7.357000 -88.299612 9.834891 28.328874 29.644182 -38.606037 -12.474925 0.093734 -2.596231 -3.464508 -7.125000 0.000000 0.000000 59.268105 32.328739 6.246801 -26.480993 35.798237 -9.343485 -0.526537 0.564920 33.809902 7.125000 0.000000 0.000000 
2.812659 17.240118 7.096177 119.635564 -82.517030 -115.728691 6.883825 -12.458089 -13.886859 0.352952 8.354411 23.808340 1.397480 7.128630 30.897318 4.304600 -12.555100 -37.725100 -5.395015 10.712025 -31.829092 -6.255554 -15.351866 45.663073 1.019403 -6.577184 7.551335 -0.461300 4.356500 -12.081900 3.771390 2.656361 8.235102 3.171005 0.383728 -10.232413 -4.578184 0.830667 12.855431 -2.820400 -0.515300 7.326100 -88.862715 9.945646 29.480128 30.014640 -38.889858 -12.743375 0.077435 -2.618999 -3.752129 -7.125000 0.000000 0.000000 58.402788 32.872232 4.060653 -24.028239 33.192563 -7.800839 -0.505140 0.500105 32.177286 7.125000 0.000000 0.000000 
